HIERARCHY
ROOT Hips
{
    OFFSET 0.000000 0.000000 0.000000
    CHANNELS 6 Xposition Yposition Zposition Zrotation Yrotation Xrotation
    JOINT Chest
    {
        OFFSET 0.000000 1.634758 -0.000000
        CHANNELS 3 Zrotation Yrotation Xrotation
        JOINT Chest2
        {
            OFFSET 0.000000 2.197341 0.000000
            CHANNELS 3 Zrotation Yrotation Xrotation
            JOINT Neck
            {
                OFFSET 0.000000 0.961544 0.000000
                CHANNELS 3 Zrotation Yrotation Xrotation
                JOINT Head
                {
                    OFFSET 0.000000 0.632542 -0.032565
                    CHANNELS 3 Zrotation Yrotation Xrotation
                    End Site
                    {
                        OFFSET -0.000001 0.439502 2.922845
                    }
                }
            }
            JOINT LeftCollar
            {
                OFFSET 0.167536 0.778237 -0.168280
                CHANNELS 3 Zrotation Yrotation Xrotation
                JOINT LeftShoulder
                {
                    OFFSET 0.831514 -0.002900 0.006458
                    CHANNELS 3 Zrotation Yrotation Xrotation
                    JOINT LeftElbow
                    {
                        OFFSET 2.272872 -0.026639 0.059314
                        CHANNELS 3 Zrotation Yrotation Xrotation
                        JOINT LeftWrist
                        {
                            OFFSET 2.081982 -0.024402 0.054333
                            CHANNELS 3 Zrotation Yrotation Xrotation
                            JOINT LeftHandThumb1
                            {
                                OFFSET 0.218903 -0.128645 0.283837
                                CHANNELS 3 Zrotation Yrotation Xrotation
                                JOINT LeftHandThumb2
                                {
                                    OFFSET 0.137157 -0.025101 0.077902
                                    CHANNELS 3 Zrotation Yrotation Xrotation
                                    JOINT LeftHandThumb3
                                    {
                                        OFFSET 0.165861 -0.067014 0.039226
                                        CHANNELS 3 Zrotation Yrotation Xrotation
                                        End Site
                                        {
                                            OFFSET 0.241157 -0.045065 0.107930
                                        }
                                    }
                                }
                            }
                            JOINT LeftHandFore1
                            {
                                OFFSET 0.767340 -0.016076 0.196678
                                CHANNELS 3 Zrotation Yrotation Xrotation
                                JOINT LeftHandFore2
                                {
                                    OFFSET 0.212115 -0.043262 0.011444
                                    CHANNELS 3 Zrotation Yrotation Xrotation
                                    JOINT LeftHandFore3
                                    {
                                        OFFSET 0.120862 -0.045841 0.007347
                                        CHANNELS 3 Zrotation Yrotation Xrotation
                                        End Site
                                        {
                                            OFFSET 0.168714 -0.094049 0.007572
                                        }
                                    }
                                }
                            }
                            JOINT LeftHandMiddle1
                            {
                                OFFSET 0.709887 -0.008320 0.018526
                                CHANNELS 3 Zrotation Yrotation Xrotation
                                JOINT LeftHandMiddle2
                                {
                                    OFFSET 0.241138 -0.043217 0.006995
                                    CHANNELS 3 Zrotation Yrotation Xrotation
                                    JOINT LeftHandMiddle3
                                    {
                                        OFFSET 0.137071 -0.050703 0.004910
                                        CHANNELS 3 Zrotation Yrotation Xrotation
                                        End Site
                                        {
                                            OFFSET 0.213767 -0.099275 0.008867
                                        }
                                    }
                                }
                            }
                            JOINT LeftHandRing1
                            {
                                OFFSET 0.743817 -0.005823 -0.153668
                                CHANNELS 3 Zrotation Yrotation Xrotation
                                JOINT LeftHandRing2
                                {
                                    OFFSET 0.347108 -0.064494 -0.009457
                                    CHANNELS 3 Zrotation Yrotation Xrotation
                                    JOINT LeftHandRing3
                                    {
                                        OFFSET 0.130136 -0.040825 0.001833
                                        CHANNELS 3 Zrotation Yrotation Xrotation
                                        End Site
                                        {
                                            OFFSET 0.110091 -0.047923 0.001784
                                        }
                                    }
                                }
                            }
                            JOINT LeftHandLittle1
                            {
                                OFFSET 0.689408 -0.053302 -0.308304
                                CHANNELS 3 Zrotation Yrotation Xrotation
                                JOINT LeftHandLittle2
                                {
                                    OFFSET 0.192118 -0.028163 -0.018748
                                    CHANNELS 3 Zrotation Yrotation Xrotation
                                    JOINT LeftHandLittle3
                                    {
                                        OFFSET 0.112698 -0.040789 -0.011480
                                        CHANNELS 3 Zrotation Yrotation Xrotation
                                        End Site
                                        {
                                            OFFSET 0.174902 -0.074792 -0.010192
                                        }
                                    }
                                }
                            }
                        }
                    }
                }
            }
            JOINT RightCollar
            {
                OFFSET -0.167536 0.778237 -0.168280
                CHANNELS 3 Zrotation Yrotation Xrotation
                JOINT RightShoulder
                {
                    OFFSET -0.831514 -0.002900 0.006457
                    CHANNELS 3 Zrotation Yrotation Xrotation
                    JOINT RightElbow
                    {
                        OFFSET -2.272872 -0.026639 0.059313
                        CHANNELS 3 Zrotation Yrotation Xrotation
                        JOINT RightWrist
                        {
                            OFFSET -2.081982 -0.024402 0.054331
                            CHANNELS 3 Zrotation Yrotation Xrotation
                            JOINT RightHandThumb1
                            {
                                OFFSET -0.218911 -0.128571 0.283837
                                CHANNELS 3 Zrotation Yrotation Xrotation
                                JOINT RightHandThumb2
                                {
                                    OFFSET -0.137157 -0.025101 0.077902
                                    CHANNELS 3 Zrotation Yrotation Xrotation
                                    JOINT RightHandThumb3
                                    {
                                        OFFSET -0.165861 -0.067014 0.039226
                                        CHANNELS 3 Zrotation Yrotation Xrotation
                                        End Site
                                        {
                                            OFFSET -0.229436 -0.065997 0.121819
                                        }
                                    }
                                }
                            }
                            JOINT RightHandFore1
                            {
                                OFFSET -0.767344 -0.015991 0.196679
                                CHANNELS 3 Zrotation Yrotation Xrotation
                                JOINT RightHandFore2
                                {
                                    OFFSET -0.212128 -0.043215 0.011443
                                    CHANNELS 3 Zrotation Yrotation Xrotation
                                    JOINT RightHandFore3
                                    {
                                        OFFSET -0.120926 -0.045827 0.006236
                                        CHANNELS 3 Zrotation Yrotation Xrotation
                                        End Site
                                        {
                                            OFFSET -0.168488 -0.093976 0.012134
                                        }
                                    }
                                }
                            }
                            JOINT RightHandMiddle1
                            {
                                OFFSET -0.709887 -0.008302 0.018525
                                CHANNELS 3 Zrotation Yrotation Xrotation
                                JOINT RightHandMiddle2
                                {
                                    OFFSET -0.241129 -0.043240 0.006995
                                    CHANNELS 3 Zrotation Yrotation Xrotation
                                    JOINT RightHandMiddle3
                                    {
                                        OFFSET -0.137111 -0.050729 0.003410
                                        CHANNELS 3 Zrotation Yrotation Xrotation
                                        End Site
                                        {
                                            OFFSET -0.213892 -0.099304 0.004392
                                        }
                                    }
                                }
                            }
                            JOINT RightHandRing1
                            {
                                OFFSET -0.743819 -0.005785 -0.153669
                                CHANNELS 3 Zrotation Yrotation Xrotation
                                JOINT RightHandRing2
                                {
                                    OFFSET -0.347113 -0.064470 -0.009457
                                    CHANNELS 3 Zrotation Yrotation Xrotation
                                    JOINT RightHandRing3
                                    {
                                        OFFSET -0.129838 -0.040806 -0.009051
                                        CHANNELS 3 Zrotation Yrotation Xrotation
                                        End Site
                                        {
                                            OFFSET -0.109824 -0.047907 -0.007998
                                        }
                                    }
                                }
                            }
                            JOINT RightHandLittle1
                            {
                                OFFSET -0.689403 -0.053298 -0.308303
                                CHANNELS 3 Zrotation Yrotation Xrotation
                                JOINT RightHandLittle2
                                {
                                    OFFSET -0.192122 -0.028157 -0.018749
                                    CHANNELS 3 Zrotation Yrotation Xrotation
                                    JOINT RightHandLittle3
                                    {
                                        OFFSET -0.112704 -0.040786 -0.011395
                                        CHANNELS 3 Zrotation Yrotation Xrotation
                                        End Site
                                        {
                                            OFFSET -0.173428 -0.074546 -0.025578
                                        }
                                    }
                                }
                            }
                        }
                    }
                }
            }
        }
    }
    JOINT LeftHip
    {
        OFFSET 0.685143 0.673822 -0.044491
        CHANNELS 3 Zrotation Yrotation Xrotation
        JOINT LeftKnee
        {
            OFFSET 0.085364 -3.750208 0.017676
            CHANNELS 3 Zrotation Yrotation Xrotation
            JOINT LeftAnkle
            {
                OFFSET 0.094583 -4.155206 0.019585
                CHANNELS 3 Zrotation Yrotation Xrotation
                JOINT LeftToe
                {
                    OFFSET -0.000000 -0.395925 0.621478
                    CHANNELS 3 Zrotation Yrotation Xrotation
                    End Site
                    {
                        OFFSET -0.000000 -0.077878 0.321152
                    }
                }
            }
        }
    }
    JOINT RightHip
    {
        OFFSET -0.685143 0.673822 -0.044492
        CHANNELS 3 Zrotation Yrotation Xrotation
        JOINT RightKnee
        {
            OFFSET -0.085364 -3.750208 0.017677
            CHANNELS 3 Zrotation Yrotation Xrotation
            JOINT RightAnkle
            {
                OFFSET -0.094583 -4.155206 0.019585
                CHANNELS 3 Zrotation Yrotation Xrotation
                JOINT RightToe
                {
                    OFFSET -0.000000 -0.395925 0.621478
                    CHANNELS 3 Zrotation Yrotation Xrotation
                    End Site
                    {
                        OFFSET -0.000000 -0.077878 0.321152
                    }
                }
            }
        }
    }
}
MOTION
Frames: 7
Frame Time: 0.033333
-2.980267 8.873947 -2.466378 -161.793335 -32.987862 140.934387 20.305666 -14.114443 32.080933 -0.022237 2.237208 -1.307066 -20.720514 -8.390483 2.194661 0.629800 -12.051889 4.793830 -2.119016 -6.085721 0.069442 -50.289497 18.988852 -26.446827 178.244431 -51.929302 -179.152374 -23.148144 3.294046 -7.980045 0.000000 -0.000005 -0.000008 22.581373 -14.130583 -12.616703 0.000002 -0.000001 -0.000004 2.277898 -10.065109 0.624994 12.824773 4.404476 0.676316 8.129794 0.953648 -0.093712 1.994553 3.530092 -0.504593 13.444962 9.258092 2.342592 3.178752 0.102320 -0.034820 -3.514686 13.345240 -2.170600 7.775114 4.102126 0.949160 5.173681 1.912844 0.022706 -8.564527 31.737875 -6.590158 0.876662 0.015327 -0.015563 17.475378 0.373329 0.538117 3.378963 3.189169 -0.151381 16.114677 -15.258252 9.613247 -177.039902 73.028366 -177.815598 22.894705 30.421595 -21.240242 0.000007 0.000007 -0.000005 -9.437483 23.101442 -15.275754 0.000001 -0.000002 -0.000001 -15.855124 9.563815 -1.638221 -18.375366 3.727944 -2.893921 -12.690398 0.674044 -1.076980 -12.328938 -3.812686 -0.031682 -19.003450 8.681997 -4.301900 -6.764709 0.105024 -0.300368 -15.213651 -13.912478 0.890966 -11.812238 4.260541 -0.764270 -7.614476 2.073816 0.332613 -9.235348 -32.719536 0.707459 -3.521663 0.203332 0.738350 -18.257761 1.599953 2.761310 18.990059 -3.423907 38.620651 -0.000000 0.000002 0.000000 -0.898749 -8.027657 -10.072680 0.000001 0.000007 -0.000005 32.209473 1.436977 12.682709 -0.708214 -1.159963 62.813236 18.339497 -19.875896 14.028997 0.000002 -0.000002 0.000005
-3.264840 8.909554 -2.693032 -157.196960 -37.305992 136.451340 20.173189 -18.585299 30.749672 -0.582615 2.963830 -1.754779 -20.054136 -9.332142 2.508309 0.655085 -12.520777 4.943470 0.143391 -6.917663 -0.021230 -22.000635 14.947789 -16.322670 178.433487 -41.637245 -179.411667 -24.874517 -0.068018 -9.486417 -0.000008 -0.000002 -0.000012 22.581373 -14.130583 -12.616714 0.000002 0.000002 0.000003 0.472987 -10.125696 0.926252 11.874166 4.384040 0.626093 7.523502 0.925823 -0.084195 0.597583 3.481731 -0.569091 12.484358 9.269592 2.216414 2.702023 0.086998 -0.030105 -6.008069 13.237468 -2.586539 7.062160 4.098092 0.886220 4.819083 1.900307 0.015906 -10.957659 31.540804 -7.591439 0.474330 0.008927 -0.008253 17.285803 0.370144 0.531637 2.360393 2.826519 -0.143637 12.267672 -10.680684 9.250058 -177.807800 63.936569 -178.639084 32.684452 34.874989 -19.566828 0.000003 0.000003 -0.000009 -9.437480 23.101442 -15.275752 0.000004 -0.000002 -0.000003 -11.203218 9.744553 -0.865059 -16.679234 3.802277 -2.581413 -11.127071 0.680657 -0.956340 -8.764792 -3.722566 -0.191968 -17.218637 8.791929 -3.880599 -5.534850 0.087756 -0.245644 -8.800179 -13.737381 -0.151813 -10.466705 4.240955 -0.688149 -6.743974 2.038223 0.301730 -3.167679 -32.426994 -1.761471 -2.572298 0.146897 0.539584 -17.910244 1.561369 2.713940 23.105455 -3.868664 39.837753 -0.000001 -0.000003 0.000000 -4.344970 -13.677188 -9.640166 0.000001 0.000005 0.000003 26.136566 1.675992 5.341465 -0.775808 -1.192256 66.105560 17.823105 -16.858595 9.356421 -0.000002 -0.000003 0.000002
-3.491707 8.943219 -2.903600 -152.286850 -41.067402 131.587448 20.591301 -20.861814 28.511902 -0.392959 3.265654 -3.104922 -19.390194 -10.195563 3.338833 0.711297 -13.557050 6.371345 0.816635 -7.246212 -0.060717 -5.557484 4.537347 -10.661697 178.516113 -34.532787 -179.546082 -26.850777 -2.899446 -10.857858 -0.000007 0.000007 -0.000002 22.581377 -14.130589 -12.616712 0.000003 -0.000002 -0.000000 -1.052714 -10.175809 1.180933 10.946580 4.360638 0.588423 7.011034 0.900090 -0.077410 -0.594392 3.433226 -0.624766 11.546748 9.274389 2.111827 2.299111 0.074149 -0.026085 -8.117516 13.122925 -2.943588 6.366067 4.092374 0.829681 4.507545 1.888036 0.009604 -12.990359 31.328838 -8.451832 0.115637 0.003116 -0.001746 17.100695 0.366981 0.525276 1.704325 2.272442 -0.117455 9.956541 -7.984667 9.059084 -178.183640 54.279514 -179.076187 42.598370 37.295197 -16.639652 0.000005 0.000003 0.000005 -9.437485 23.101442 -15.275752 0.000003 -0.000004 -0.000002 -6.131777 9.931039 -0.020026 -14.648239 3.879609 -2.228700 -9.423772 0.682954 -0.822585 -4.873786 -3.618719 -0.367510 -15.111362 8.907211 -3.414366 -4.194893 0.068258 -0.185826 -1.805047 -13.531060 -1.293563 -8.886343 4.215513 -0.607179 -5.787905 1.997888 0.268285 3.481489 -32.070343 -4.486112 -1.526029 0.086486 0.320159 -17.500406 1.516230 2.657812 27.376759 -4.610525 40.331600 0.000001 0.000002 -0.000001 -7.090280 -18.519690 -9.287696 0.000001 0.000005 0.000001 21.542967 1.635004 2.969103 -0.694624 -1.152884 62.139824 15.434684 -16.674297 11.290751 0.000000 0.000003 0.000012
-3.636135 8.972799 -3.074805 -146.979187 -44.285091 126.485840 21.410044 -20.533688 24.339275 0.578950 3.144090 -2.835331 -18.721827 -10.618409 4.437983 0.778420 -14.782514 8.616540 1.133873 -6.725782 -0.074294 7.031150 -4.668155 -11.255978 178.561966 -29.137526 -179.633575 -28.506882 -5.060781 -11.961012 0.000005 -0.000014 -0.000008 22.581377 -14.130583 -12.616712 0.000002 0.000003 0.000000 -2.229171 -10.213764 1.377310 10.058958 4.333891 0.565908 6.615871 0.876957 -0.074020 -1.529037 3.384751 -0.669356 10.649246 9.271160 2.033994 1.988464 0.064303 -0.022966 -9.746312 13.000319 -3.226308 5.699471 4.084816 0.781456 4.250902 1.876234 0.003968 -14.568920 31.099812 -9.133012 -0.186844 -0.001782 0.003758 16.923424 0.363905 0.519151 0.813947 1.925427 -0.061966 3.191759 -9.186921 7.069845 -178.326370 48.148106 -179.259537 51.779766 39.562363 -14.048725 -0.000012 -0.000000 0.000014 -9.437483 23.101439 -15.275752 0.000002 -0.000003 0.000000 -1.474674 10.092419 0.757023 -12.481069 3.945315 -1.885411 -7.860507 0.678551 -0.696658 -1.290155 -3.509344 -0.531365 -12.908429 9.006063 -2.975097 -2.965092 0.049731 -0.130759 4.624023 -13.299825 -2.354547 -7.246210 4.184988 -0.535947 -4.897801 1.957618 0.238180 9.628377 -31.655071 -7.033991 -0.546228 0.031680 0.114336 -17.072508 1.469562 2.598852 31.523659 -5.641412 39.692997 0.000000 -0.000002 0.000001 -10.196486 -22.497343 -7.953049 -0.000003 -0.000009 0.000001 19.960516 1.464389 3.644494 -0.563892 -1.073657 55.418823 13.878492 -18.220434 10.949117 0.000000 0.000003 0.000003
-3.684106 8.996099 -3.184702 -141.060364 -46.972073 121.289650 20.985216 -21.458115 20.435442 0.677359 3.262485 -3.172422 -18.085688 -11.191683 5.892810 0.830630 -15.726211 11.352278 1.571629 -6.439279 -0.099649 18.052200 -8.025005 -17.867069 178.581039 -26.370028 -179.674896 -29.255169 -6.469320 -12.756011 -0.000002 -0.000000 -0.000003 22.581379 -14.130580 -12.616712 -0.000002 0.000002 0.000001 -2.986376 -10.237855 1.503683 9.228224 4.303360 0.561132 6.361482 0.856971 -0.074692 -2.154098 3.336447 -0.700559 9.808959 9.258544 1.988058 1.788541 0.057993 -0.020950 -10.797732 12.868327 -3.419175 5.075011 4.075279 0.743482 4.060974 1.865100 -0.000831 -15.599547 30.851633 -9.596433 -0.420520 -0.005454 0.008052 16.757339 0.360991 0.513393 -0.105876 2.477968 -0.013958 -4.974028 -13.496531 5.983510 -173.020981 83.910713 -173.731720 58.799686 42.392864 -12.475675 -0.000002 0.000004 0.000003 -9.437484 23.101440 -15.275749 -0.000002 -0.000004 0.000003 1.932763 10.204487 1.325792 -10.376808 3.985984 -1.601946 -6.717290 0.666460 -0.599945 1.351761 -3.398561 -0.656697 -10.837429 9.067443 -2.635281 -2.065699 0.035795 -0.090396 9.335567 -13.036330 -3.153497 -5.721408 4.149660 -0.488910 -4.225279 1.921631 0.217531 14.169788 -31.167080 -8.958809 0.203618 -0.008969 -0.043431 -16.670801 1.426287 2.543025 35.210541 -6.975382 37.560829 0.000001 -0.000002 -0.000000 -13.849348 -25.226276 -5.217265 0.000002 0.000005 -0.000005 4.352084 -22.512259 12.453541 -0.230581 -0.740456 34.595306 1.500979 3.192694 23.225874 -0.000002 0.000002 0.000000
-3.713996 9.015918 -3.254423 -134.987305 -49.141335 116.141960 19.845036 -22.844606 16.815374 0.375161 3.473653 -4.029477 -17.434757 -11.526866 7.465753 0.846196 -16.005955 14.251835 2.311799 -7.021121 -0.151432 27.557112 -9.413410 -25.458023 178.551620 -30.488472 -179.612595 -27.682686 -7.117354 -13.335903 -0.000002 -0.000002 -0.000012 22.581373 -14.130583 -12.616711 0.000003 -0.000002 0.000004 -3.254323 -10.246322 1.548396 8.471322 4.268569 0.576654 6.271337 0.840664 -0.080064 -2.417230 3.288482 -0.716071 9.043002 9.235168 1.979167 1.717794 0.055768 -0.020229 -11.174989 12.725885 -3.506607 4.505304 4.063641 0.717664 3.949604 1.854845 -0.004617 -15.988566 30.582470 -9.803587 -0.572810 -0.007563 0.010939 16.605804 0.358290 0.508112 -1.767182 3.714158 0.081733 -11.428063 -1.234517 4.781495 -1.252729 69.683136 -1.806906 56.238201 48.430294 -15.943407 0.000028 -0.000006 0.000003 -9.437484 23.101444 -15.275754 0.000004 -0.000003 0.000002 3.254351 10.246559 1.546334 -8.534787 3.989547 -1.429364 -6.274117 0.646451 -0.553991 2.417293 -3.288385 -0.716493 -9.126497 9.071096 -2.467861 -1.716958 0.030300 -0.074724 11.174944 -12.726066 -3.506061 -4.487053 4.109354 -0.480370 -3.921900 1.893809 0.212508 15.988629 -30.582479 -9.803456 0.559909 -0.027527 -0.118570 -16.339588 1.391211 2.496327 38.016693 -8.453044 34.940449 0.000000 -0.000000 0.000000 -17.288111 -26.718138 -2.096327 0.000003 0.000005 -0.000003 1.756796 -26.033743 20.036715 -0.039675 -0.319265 14.170231 0.788468 2.937530 34.555691 0.000000 0.000005 0.000003
-3.749282 9.036135 -3.321223 -129.308701 -50.805897 111.081161 18.023169 -24.261114 13.542339 -0.291724 3.698273 -4.837132 -16.757763 -11.703842 9.110078 0.839990 -15.894436 17.261423 2.537812 -12.839312 -0.198385 15.517880 -30.652069 -15.610785 177.356461 -70.199036 -178.149307 -24.324411 -7.122774 -5.648103 -0.000008 -0.000009 -0.000012 22.322992 -13.889069 -12.415507 -0.005279 0.115454 0.012178 -3.258247 -10.132835 1.531425 7.636373 4.186758 0.594239 6.309926 0.825261 -0.089154 -2.481950 3.212289 -0.714445 8.227429 9.104791 1.964961 1.737087 0.056416 -0.020495 -11.084402 12.466353 -3.489653 3.906345 4.005869 0.689327 3.881366 1.829335 -0.009334 -15.899741 30.009724 -9.762817 -0.680211 -0.008794 0.013053 16.445297 0.354844 0.502362 -3.364328 4.871448 0.189877 -16.575920 12.258972 3.585395 -0.274513 45.003098 -0.670003 47.228207 32.976475 -18.654655 0.000009 0.000007 0.000002 -9.166873 22.884747 -14.991238 0.090205 -0.027625 0.068275 3.258253 10.133051 1.529398 -6.880855 3.930509 -1.314744 -6.312958 0.620992 -0.543979 2.482838 -3.158026 -0.724507 -7.665639 8.941694 -2.384021 -1.736240 0.030654 -0.075527 11.093140 -12.298880 -3.522473 -3.455667 4.023776 -0.489011 -3.853687 1.856977 0.218222 15.940328 -29.692438 -9.836433 0.664896 -0.032390 -0.140888 -16.058382 1.361219 2.456470 40.234142 -9.889214 32.636856 0.000000 0.000002 -0.000001 -20.328375 -27.640167 0.882206 0.000001 -0.000002 0.000000 -0.192654 -28.185701 25.622681 -0.000001 0.000002 0.000000 -0.343242 2.181006 41.389431 -0.000002 -0.000002 0.000002
